<svg width="30" height="23" viewBox="0 0 30 23" fill="none" xmlns="http://www.w3.org/2000/svg">
<path d="M21.511 15.8127C21.0448 12.5783 17.4681 10.0625 13.125 10.0625C9.44329 10.0625 6.31423 11.8698 5.16126 14.3894C2.27159 14.5702 0 16.4255 0 18.6875C0 21.0692 2.5184 23 5.625 23L21.5625 23C24.1513 23 26.25 21.391 26.25 19.4063C26.25 17.4215 24.1513 15.8125 21.5625 15.8125C21.5453 15.8125 21.5282 15.8126 21.511 15.8127Z" fill="black"/>
<path d="M19.6875 2.15625C19.6875 1.7593 19.2677 1.4375 18.75 1.4375C18.2322 1.4375 17.8125 1.7593 17.8125 2.15625V3.59375C17.8125 3.9907 18.2322 4.3125 18.75 4.3125C19.2677 4.3125 19.6875 3.9907 19.6875 3.59375V2.15625ZM26.7049 4.98015C27.071 4.69946 27.071 4.24437 26.7049 3.96368C26.3388 3.683 25.7452 3.683 25.3791 3.96369L24.0533 4.98015C23.6872 5.26084 23.6872 5.71593 24.0533 5.99662C24.4194 6.27731 25.013 6.27731 25.3791 5.99662L26.7049 4.98015ZM12.1209 3.96369C11.7548 3.683 11.1612 3.683 10.795 3.96369C10.4289 4.24438 10.4289 4.69946 10.795 4.98015L12.1209 5.99662C12.487 6.27731 13.0806 6.27731 13.4467 5.99662C13.8128 5.71593 13.8128 5.26084 13.4467 4.98015L12.1209 3.96369ZM15.3716 8.81311C15.978 7.85109 17.2629 7.18748 18.75 7.18748C20.8211 7.18748 22.5 8.47466 22.5 10.0625C22.5 10.796 22.1417 11.4653 21.552 11.9732C21.9244 12.3773 22.2486 12.8093 22.5183 13.2643C23.6584 12.4751 24.375 11.3329 24.375 10.0625C24.375 7.68076 21.8566 5.74998 18.75 5.74998C16.299 5.74998 14.2142 6.9518 13.4434 8.6287C14.1036 8.64405 14.7483 8.70695 15.3716 8.81311ZM23.7797 14.6694C24.9047 14.9789 25.8874 15.5174 26.6324 16.2115C26.6574 16.1959 26.6817 16.1791 26.705 16.1613C27.0711 15.8806 27.0711 15.4255 26.705 15.1448L25.3791 14.1283C25.013 13.8477 24.4194 13.8477 24.0533 14.1283C23.8594 14.277 23.7681 14.4747 23.7797 14.6694ZM27.1875 9.34373C26.6697 9.34373 26.25 9.66553 26.25 10.0625C26.25 10.4594 26.6697 10.7812 27.1875 10.7812H29.0625C29.5803 10.7812 30 10.4594 30 10.0625C30 9.66553 29.5803 9.34373 29.0625 9.34373H27.1875Z" fill="black"/>
</svg>
