<svg width="52" height="44" viewBox="0 0 52 44" fill="none" xmlns="http://www.w3.org/2000/svg">
<path d="M45.5 2.75C47.2949 2.75 48.75 3.98122 48.75 5.5V38.5C48.75 40.0188 47.2949 41.25 45.5 41.25H6.5C4.70507 41.25 3.25 40.0188 3.25 38.5V5.5C3.25 3.98122 4.70507 2.75 6.5 2.75H45.5ZM6.5 0C2.91015 0 0 2.46243 0 5.5V38.5C0 41.5376 2.91015 44 6.5 44H45.5C49.0899 44 52 41.5376 52 38.5V5.5C52 2.46243 49.0899 0 45.5 0H6.5Z" fill="black"/>
<path d="M22.274 12.7777C22.9087 13.3147 22.9087 14.1853 22.274 14.7223L13.6731 22L22.274 29.2777C22.9087 29.8147 22.9087 30.6853 22.274 31.2223C21.6394 31.7592 20.6106 31.7592 19.976 31.2223L10.226 22.9723C9.59135 22.4353 9.59135 21.5647 10.226 21.0277L19.976 12.7777C20.6106 12.2408 21.6394 12.2408 22.274 12.7777Z" fill="black"/>
<path d="M29.726 12.7777C29.0913 13.3147 29.0913 14.1853 29.726 14.7223L38.3269 22L29.726 29.2777C29.0913 29.8147 29.0913 30.6853 29.726 31.2223C30.3606 31.7592 31.3894 31.7592 32.024 31.2223L41.774 22.9723C42.4087 22.4353 42.4087 21.5647 41.774 21.0277L32.024 12.7777C31.3894 12.2408 30.3606 12.2408 29.726 12.7777Z" fill="black"/>
</svg>
