<svg width="60" height="38" viewBox="0 0 60 38" fill="none" xmlns="http://www.w3.org/2000/svg">
<path d="M15 0H45C49.1421 0 52.5 2.12665 52.5 4.75V24.4456L42.2659 17.964C40.6273 16.9263 37.9096 17.0687 36.5628 18.263L29.4804 24.5427L22.845 22.0213C21.3695 21.4606 19.4808 21.6078 18.264 22.3784L7.5 29.1956V4.75C7.5 2.12665 10.8579 0 15 0ZM30.0057 13.0625C30.0057 11.095 27.4873 9.5 24.3807 9.5C21.2741 9.5 18.7557 11.095 18.7557 13.0625C18.7557 15.03 21.2741 16.625 24.3807 16.625C27.4873 16.625 30.0057 15.03 30.0057 13.0625Z" fill="black"/>
<path d="M39.6143 19.6434L52.5 27.8044V33.25C52.5 35.8734 49.1421 38 45 38H15C10.8579 38 7.5 35.8734 7.5 33.25V32.5544L20.9157 24.0578L30.5196 27.7073L39.6143 19.6434Z" fill="black"/>
</svg>
