<svg width="20" height="16" viewBox="0 0 20 16" fill="none" xmlns="http://www.w3.org/2000/svg">
<path d="M10 0C4.475 0 0 3.58 0 8C0 11.54 2.8625 14.53 6.8375 15.59C7.3375 15.66 7.525 15.42 7.525 15.21C7.525 15.02 7.5125 14.39 7.5125 13.72C5 14.09 4.35 13.23 4.15 12.78C4.0375 12.55 3.55 11.84 3.125 11.65C2.775 11.5 2.275 11.13 3.1125 11.12C3.9 11.11 4.4625 11.7 4.65 11.94C5.55 13.15 6.9875 12.81 7.5625 12.6C7.65 12.08 7.9125 11.73 8.2 11.53C5.975 11.33 3.65 10.64 3.65 7.58C3.65 6.71 4.0375 5.99 4.675 5.43C4.575 5.23 4.225 4.41 4.775 3.31C4.775 3.31 5.6125 3.1 7.525 4.13C8.325 3.95 9.175 3.86 10.025 3.86C10.875 3.86 11.725 3.95 12.525 4.13C14.4375 3.09 15.275 3.31 15.275 3.31C15.825 4.41 15.475 5.23 15.375 5.43C16.0125 5.99 16.4 6.7 16.4 7.58C16.4 10.65 14.0625 11.33 11.8375 11.53C12.2 11.78 12.5125 12.26 12.5125 13.01C12.5125 14.08 12.5 14.94 12.5 15.21C12.5 15.42 12.6875 15.67 13.1875 15.59C15.1727 15.0539 16.8977 14.0332 18.1198 12.6716C19.3419 11.3101 19.9995 9.6762 20 8C20 3.58 15.525 0 10 0Z" fill="black"/>
</svg>
