<svg width="30" height="25" viewBox="0 0 30 25" fill="none" xmlns="http://www.w3.org/2000/svg">
<path d="M11.2506 0.43485C11.5922 0.78193 11.7088 1.30502 11.4013 1.7752C10.3502 3.38241 9.75282 5.22347 9.75282 7.18259C9.75282 13.4645 15.9006 18.5511 23.4753 18.5511C24.4623 18.5511 25.4239 18.4649 26.3502 18.3014C26.9835 18.1896 27.5595 18.4282 27.8683 18.7947C28.1869 19.1729 28.2537 19.7372 27.8097 20.1913C24.9438 23.1227 20.559 25 15.6442 25C7.00017 25 0 19.1974 0 12.0469C0 6.66532 3.96403 2.04995 9.60663 0.0938872C10.2586 -0.132111 10.898 0.0767082 11.2506 0.43485Z" fill="black"/>
<path d="M20.2394 4.91912C20.3629 4.61029 20.8871 4.61029 21.0107 4.91913L21.7368 6.73453C22.0605 7.54375 22.8225 8.17875 23.7936 8.44849L25.9721 9.05363C26.3427 9.15657 26.3427 9.59341 25.9721 9.69636L23.7936 10.3015C22.8225 10.5712 22.0605 11.2062 21.7368 12.0155L21.0107 13.8309C20.8871 14.1397 20.3629 14.1397 20.2394 13.8309L19.5132 12.0154C19.1895 11.2062 18.4275 10.5712 17.4565 10.3015L15.278 9.69636C14.9073 9.59341 14.9073 9.15657 15.278 9.05363L17.4565 8.44848C18.4275 8.17874 19.1895 7.54376 19.5132 6.73455L20.2394 4.91912Z" fill="black"/>
<path d="M25.9929 0.154416C26.0753 -0.0514734 26.4248 -0.0514716 26.5071 0.154419L26.9912 1.36469C27.207 1.90417 27.715 2.3275 28.3624 2.50732L29.8147 2.91075C30.0618 2.97938 30.0618 3.27061 29.8147 3.33924L28.3624 3.74266C27.715 3.92249 27.207 4.34582 26.9912 4.8853L26.5071 6.09558C26.4248 6.30147 26.0753 6.30147 25.9929 6.09558L25.5088 4.88529C25.293 4.34582 24.785 3.92249 24.1377 3.74267L22.6853 3.33924C22.4382 3.27061 22.4382 2.97938 22.6853 2.91075L24.1377 2.50732C24.785 2.3275 25.293 1.90417 25.5088 1.3647L25.9929 0.154416Z" fill="black"/>
</svg>
