<svg width="20" height="16" viewBox="0 0 20 16" fill="none" xmlns="http://www.w3.org/2000/svg">
<path d="M20 8C20 12.4183 15.5228 16 10 16C4.47715 16 0 12.4183 0 8C0 3.58172 4.47715 0 10 0C15.5228 0 20 3.58172 20 8ZM10.3584 5.90599C9.38576 6.22963 7.44183 6.8995 4.52663 7.91558C4.05324 8.06618 3.80527 8.21351 3.78269 8.35757C3.74454 8.60103 4.12565 8.6969 4.64461 8.82745C4.7152 8.8452 4.78835 8.8636 4.86333 8.8831C5.37391 9.01588 6.06074 9.17121 6.41779 9.17738C6.74167 9.18298 7.10316 9.07616 7.50225 8.85692C10.226 7.38603 11.632 6.64258 11.7203 6.62655C11.7826 6.61524 11.8689 6.60102 11.9274 6.6426C11.9858 6.68418 11.9801 6.76291 11.9739 6.78404C11.9361 6.9128 10.4402 8.02543 9.66599 8.60121C9.42464 8.78071 9.25344 8.90804 9.21845 8.93712C9.14005 9.00226 9.06016 9.06388 8.98337 9.1231C8.50902 9.48891 8.15331 9.76324 9.00306 10.2112C9.41142 10.4265 9.73818 10.6045 10.0642 10.7821C10.4202 10.9761 10.7753 11.1695 11.2347 11.4105C11.3518 11.4718 11.4636 11.5356 11.5725 11.5977C11.9868 11.834 12.359 12.0463 12.8189 12.0124C13.0861 11.9928 13.3621 11.7918 13.5023 11.1923C13.8336 9.77545 14.4847 6.70567 14.6352 5.44069C14.6484 5.32986 14.6318 5.18802 14.6185 5.12576C14.6052 5.06349 14.5774 4.97478 14.4762 4.90911C14.3564 4.83133 14.1714 4.81493 14.0887 4.8161C13.7126 4.8214 13.1355 4.98192 10.3584 5.90599Z" fill="black"/>
</svg>
